<svg viewBox="0 0 1023.8 104.01" xmlns="http://www.w3.org/2000/svg">
    <defs>
        <style>.cls-1{fill:#26d07c;}</style>
    </defs>
    <title>medistation_text_green</title>
    <g data-name="레이어 2" id="레이어_2">
        <g data-name="레이어 1" id="레이어_1-2">
            <path class="cls-1"
                d="M18.34,29.68c-.47-1-.89-2-1.26-3s-.75-2-1.12-3l-1.26-3.5q-.7-2-1.54-4.48v86.79H0V1.54H20.44l28,66.08L75.74,1.54H96V102.47H82.74V15.68q-.7,2.81-1.33,4.69c-.42,1.26-.8,2.4-1.12,3.43s-.68,2-1.05,2.94-.8,1.91-1.26,2.94l-24.08,56H42.14Z" />
            <path class="cls-1"
                d="M195.85,1.54v11.9h-49V44.8h46.06V56.7H146.85V90.58h50v11.89H133V1.54Z" />
            <path class="cls-1"
                d="M264.16,1.54q20.86,0,31.64,11.13T306.58,44.8V59.22q0,21-10.5,32.13t-31.92,11.12H230.71V1.54Zm-19.6,88.62H262.9a40,40,0,0,0,12.18-1.75,23.21,23.21,0,0,0,9.31-5.53,25,25,0,0,0,5.95-9.8,44.48,44.48,0,0,0,2.1-14.56v-13a44.44,44.44,0,0,0-2.1-14.56,25.65,25.65,0,0,0-5.95-9.87,22.79,22.79,0,0,0-9.31-5.6,39.68,39.68,0,0,0-12.18-1.75H244.56Z" />
            <path class="cls-1" d="M354.88,1.54V102.47H341V1.54Z" />
            <path class="cls-1"
                d="M424,91.42q10.79,0,16.17-4.34t5.39-10.36V74.48a14.31,14.31,0,0,0-1.12-5.88,11.35,11.35,0,0,0-3.78-4.48,28.91,28.91,0,0,0-6.86-3.57,66,66,0,0,0-10.36-2.87,132.33,132.33,0,0,1-13.3-3.57,40.23,40.23,0,0,1-10.64-5.18,23.16,23.16,0,0,1-7.07-7.84,23.59,23.59,0,0,1-2.59-11.55V27A24.87,24.87,0,0,1,392,17a24.19,24.19,0,0,1,6.44-8.61,33.21,33.21,0,0,1,10.85-6.09A45.38,45.38,0,0,1,424.45,0a59.14,59.14,0,0,1,16.8,2.24,50.59,50.59,0,0,1,14,6.58L448.67,19.6a40.67,40.67,0,0,0-11.34-5.46,45.27,45.27,0,0,0-12.74-1.68q-9.52,0-15.19,4.2t-5.67,10.22v2.24a10.93,10.93,0,0,0,1.54,5.95,13.65,13.65,0,0,0,4.48,4.27A31.61,31.61,0,0,0,417,42.49q4.34,1.34,9.94,2.59a86.63,86.63,0,0,1,15.61,4.83,35.87,35.87,0,0,1,10,6.23A20.15,20.15,0,0,1,458,64a27.21,27.21,0,0,1,1.61,9.52V76a24.83,24.83,0,0,1-10.22,20.92A32.51,32.51,0,0,1,438,102.26,56.09,56.09,0,0,1,423.61,104a55.28,55.28,0,0,1-19.81-3.43,56.49,56.49,0,0,1-15.33-8.46l7-11.34a51.53,51.53,0,0,0,6.44,4.06,67.92,67.92,0,0,0,7.42,3.43A50.94,50.94,0,0,0,417,90.58,33.37,33.37,0,0,0,424,91.42Z" />
            <path class="cls-1" d="M513.63,102.47v-89h-30.8V1.54h75.45v11.9H527.49v89Z" />
            <path class="cls-1"
                d="M658.94,102.47H644.38L633.74,72.8H595.1l-10.64,29.67H570.32L607.84,1.54h13.44ZM599.3,60.9h30.24l-8.4-23.66q-1.12-3.08-2-5.39t-1.54-4.48c-.47-1.45-1-3-1.47-4.55s-1.1-3.55-1.75-5.88c-.75,2.33-1.35,4.32-1.82,5.95s-.93,3.15-1.4,4.55-1,2.87-1.47,4.41-1.14,3.34-1.89,5.39Z" />
            <path class="cls-1" d="M701.78,102.47v-89H671V1.54h75.46v11.9h-30.8v89Z" />
            <path class="cls-1" d="M788,1.54V102.47H774.15V1.54Z" />
            <path class="cls-1"
                d="M964.59,1.54l39.2,68q1.53,2.52,3.42,6.37t3.71,8.33V1.54h12.88V102.47h-16L968.65,34.72q-1.54-2.8-3.43-6.58t-3.71-8.26v82.59H948.63V1.54Z" />
            <path class="cls-1"
                d="M878.13,45.61V30.31h-12.7v15.3h-15.3v12.7h15.3v15.3h12.7V58.31h8.72a6.58,6.58,0,0,0,6.58-6.58V45.61Z" />
            <path class="cls-1"
                d="M871.78,1.56A50.4,50.4,0,1,0,922.18,52,50.41,50.41,0,0,0,871.78,1.56Zm0,86.61A36.21,36.21,0,1,1,908,52,36.21,36.21,0,0,1,871.78,88.17Z" />
        </g>
    </g>
</svg>