<svg height="155.08" viewBox="0 0 374.873 155.08" width="374.873"
    xmlns="http://www.w3.org/2000/svg">
    <defs>
        <linearGradient gradientUnits="objectBoundingBox" id="linear-gradient" x1="0.02" x2="1.071"
            y1="-0.155" y2="2.085">
            <stop offset="0" stop-color="#26d07c" />
            <stop offset="1" stop-color="#3b7cd1" />
        </linearGradient>
        <linearGradient gradientUnits="objectBoundingBox" id="linear-gradient-2" x1="1.278"
            x2="-0.087" y1="0.063" y2="0.576">
            <stop offset="0" stop-color="#48d48f" />
            <stop offset="1" stop-color="#c7d16d" />
        </linearGradient>
        <linearGradient gradientUnits="objectBoundingBox" id="linear-gradient-3" x1="1.06"
            x2="-0.585" y1="0.784" y2="0.277">
            <stop offset="0" stop-color="#e9e9e9" />
            <stop offset="0" stop-color="#cbc7c7" />
            <stop offset="1" stop-color="#ababab" />
        </linearGradient>
    </defs>
    <g data-name="그룹 14" id="그룹_14" transform="translate(0 -658.864)">
        <path
            d="M455,719.825s46.477-12.678,90.385-8.639,56.028,12.205,110.769,19.437c127.692,10.366,173.719-8.639,173.719-8.639V797.2H455Z"
            data-name="패스 1" fill="url(#linear-gradient)" id="패스_1"
            transform="translate(-455 16.748)" />
        <g data-name="그룹 2" id="그룹_2" transform="translate(56.78 656.864) rotate(1)">
            <path
                d="M1.506,12.011C-1.3,7.933-.278,2.325,5.33.285s11.6,7.393,8.157,11.089S4.311,16.09,1.506,12.011Z"
                data-name="패스 5" fill="#606060" id="패스_5" transform="translate(31.835 57.241)" />
            <path
                d="M1.506,12.011C-1.3,7.933-.278,2.325,5.33.285s11.6,7.393,8.157,11.089S4.311,16.09,1.506,12.011Z"
                data-name="패스 6" fill="#606060" id="패스_6" transform="translate(88.835 66.241)" />
            <path
                d="M4.708,13.249C4.6,13.785,6.426-5.913,39.635,1.788c33.276,7.716,53.049,16.879,68,21.7s6.269,48.226-7.716,50.638S64.713,65.447,49.763,62.071,2.942,56.44.53,47.277,4.712,13.243,4.708,13.249Z"
                data-name="패스 2" fill="url(#linear-gradient-2)" id="패스_2"
                transform="translate(0 14.07) rotate(-7)" />
            <path
                d="M1.506,12.011C-1.3,7.933-.278,2.325,5.33.285s11.6,7.393,8.157,11.089S4.311,16.09,1.506,12.011Z"
                data-name="패스 3" fill="#848484" id="패스_3" transform="translate(17.835 59.241)" />
            <path
                d="M1.506,12.011C-1.3,7.933-.278,2.325,5.33.285s11.6,7.393,8.157,11.089S4.311,16.09,1.506,12.011Z"
                data-name="패스 4" fill="#848484" id="패스_4" transform="translate(72.835 67.241)" />
            <path
                d="M.412,3.281A2.046,2.046,0,0,1,1.456.078C2.988-.479,4.625,2.1,3.685,3.107S1.178,4.4.412,3.281Z"
                data-name="패스 7" fill="#aaa" id="패스_7" transform="translate(23.105 64.561)" />
            <path
                d="M.412,3.281A2.046,2.046,0,0,1,1.456.078C2.988-.479,4.625,2.1,3.685,3.107S1.178,4.4.412,3.281Z"
                data-name="패스 8" fill="#aaa" id="패스_8" transform="translate(78.105 72.561)" />
            <path
                d="M1.432,1.367c1.313-1.492,10.39-2.127,12.382,0s1.657,15.158-.712,16.164S1.717,19.232.578,16.113.119,2.859,1.432,1.367Z"
                data-name="패스 9" fill="#d8fce2" id="패스_9"
                transform="translate(17.312 21.331) rotate(5)" />
            <path
                d="M1.432,1.367c1.313-1.492,10.39-2.127,12.382,0s1.657,15.158-.712,16.164S1.717,19.232.578,16.113.119,2.859,1.432,1.367Z"
                data-name="패스 10" fill="#d8fce2" id="패스_10"
                transform="translate(36.312 23.331) rotate(5)" />
            <path
                d="M1.432,1.367c1.313-1.492,10.39-2.127,12.382,0s1.657,15.158-.712,16.164S1.717,19.232.578,16.113.119,2.859,1.432,1.367Z"
                data-name="패스 11" fill="#d8fce2" id="패스_11"
                transform="translate(55.312 26.331) rotate(5)" />
            <path
                d="M1.432,1.367c1.313-1.492,10.39-2.127,12.382,0s1.657,15.158-.712,16.164S1.717,19.232.578,16.113.119,2.859,1.432,1.367Z"
                data-name="패스 12" fill="#d8fce2" id="패스_12"
                transform="translate(75.013 28.886) rotate(9)" />
            <path
                d="M1.432,1.367c1.313-1.492,10.39-2.127,12.382,0s1.657,15.158-.712,16.164S1.717,19.232.578,16.113.119,2.859,1.432,1.367Z"
                data-name="패스 13" fill="#d8fce2" id="패스_13"
                transform="translate(94.375 33.682) rotate(11)" />
        </g>
        <path
            d="M3.6,1508.589c-2.1-2.467-6.329-4.288-7.552-2.492s-.575,2.414-.425,3.832c.2.765-2.22.767-1.645,3.527s3.048.527,6.134,1.073,7.878-.181,9.738-.612,2.444-.968.882-2.3S5.328,1510.615,3.6,1508.589Z"
            data-name="패스 14" fill="url(#linear-gradient-3)" id="패스_14"
            transform="translate(43.239 -803.136)" />
        <g data-name="그룹 4" id="그룹_4" transform="translate(299.376 695.624)">
            <path
                d="M316.982,1596.691c-3.014-4.982-3.57-31.354-3.57-31.354h4.308s3.016,22.187,3.662,29.726S316.982,1596.691,316.982,1596.691Z"
                data-name="패스 16" fill="#35ac71" id="패스_16"
                transform="translate(-298.376 -1544.601)" />
            <path
                d="M316.1,1554.73c6.031-2.154,17.778-2.715,19.5,12.363s-8.4,16.13-14.213,16.13-10.986-1.939-13.355-10.77S310.064,1556.884,316.1,1554.73Z"
                data-name="패스 15" fill="#26d07c" id="패스_15"
                transform="translate(-307.376 -1553.601)" />
            <path
                d="M311.63,1599.665c2.187-2.325,15.242-5.948,18.331-5.781s2.56,3.7.373,4.19-12.67,4.16-15.461,4.65S309.443,1601.989,311.63,1599.665Z"
                data-name="패스 17" fill="#187145" id="패스_17"
                transform="translate(11.511 -1576.574) rotate(11)" />
            <g data-name="그룹 3" id="그룹_3" transform="translate(8.21 8.144)">
                <path
                    d="M306.234,1557.593c1.019-1.528,1.965-2.264,3.057-3.773,1.646-2.279,3.284-3.813,5.54-3.343,3.439.717,2.34,4.25,1.481,5.492s-3.725,5.253-5.922,6.591S303.273,1562.035,306.234,1557.593Z"
                    data-name="패스 18" fill="none" id="패스_18" stroke="#fff" stroke-width="2"
                    transform="translate(-305.311 -1550.392)" />
                <path d="M309.391,1555.485l5.683,4.059" data-name="패스 19" fill="none" id="패스_19"
                    stroke="#fff" stroke-width="2" transform="translate(-306.033 -1551.292)" />
            </g>
        </g>
    </g>
</svg>
